<svg xmlns="http://www.w3.org/2000/svg" version="1.1" xmlns:xlink="http://www.w3.org/1999/xlink" xmlns:svgjs="http://svgjs.dev/svgjs" viewBox="0 0 800 800"><defs><linearGradient x1="50%" y1="0%" x2="50%" y2="100%" id="ccchaos-grad"><stop stop-color="hsl(149, 62%, 55%)" stop-opacity="1" offset="0%"></stop><stop stop-color="hsl(60, 2%, 10%)" stop-opacity="1" offset="100%"></stop></linearGradient></defs><g stroke-width="2" stroke="url(#ccchaos-grad)" fill="none" stroke-linecap="round"><path d="M378.7 104.09C388.07 101.3 397.4 100.36 406.66 101.35 415.93 103.78 425.15 107.92 434.32 113.45 443.53 119.63 452.71 126.42 461.87 133.4 471.1 139.86 480.34 145.85 489.6 151.17 498.97 155.32 508.4 158.69 517.88 161.37 527.51 163.07 537.22 164.47 547 165.81 556.94 166.87 566.95 168.4 576.99 170.59 587.15 173.17 597.29 176.75 607.36 181.37 617.44 186.72 627.33 193.14 636.95 200.54 646.4 208.63 655.41 217.54 663.86 227.09 671.92 237.1 679.24 247.54 685.69 258.26 691.53 269.18 696.34 280.23 700.01 291.29 702.93 302.39 704.64 313.43 705.09 324.36 704.81 335.28 703.33 346.07 700.68 356.74 697.52 367.38 693.4 377.91 688.44 388.32 683.37 398.73 677.78 409.03 671.83 419.18 666.27 429.34 660.81 439.1 655.61 448.42 651.17 457.71 647.14 466.5 643.59 474.74 640.92 482.88 638.71 490.39 636.93 497.22 635.6 506.85 634.77 522.22 634.65 528.13 634.66 533.69 632.55 544.58 629.98 551.24 627.85 556.98 625 563.69 621.41 571.57 617.54 580.91 612.92 591.53 607.6 603.35 601.99 616.22 595.71 629.74 588.82 643.42 581.69 656.8 574.02 669.2 565.86 679.92 557.54 688.62 548.82 694.6 539.74 697.45 530.57 697.53 521.12 694.53 511.44 688.79 501.71 681.61 491.8 673.23 481.76 664.63 471.7 657.48 461.53 652.12 451.28 649.37 441.04 650.19 430.73 654.22 420.37 661.2 410.02 670.85 399.86 681.48 389.92 691.88 379.96 701.5 370.2 708.68 360.64 712.66 351.05 713.52 341.64 710.57 332.43 704.11 323.16 694.94 314.07 683.39 305.15 670.37 296.17 656.87 287.35 643.51 278.7 631.03 269.97 620.11 261.41 610.93 253.02 603.63 244.56 598.49 236.28 595.04 228.19 592.94 220.06 592.31 212.13 592.25 204.45 592.32 196.74 592.74 189.31 592.57 182.18 591.51 175.08 590 168.32 587.27 161.93 583.29 155.63 578.56 149.75 572.61 144.32 565.58 139.02 557.9 134.21 549.34 129.93 540.1 125.81 530.46 122.24 520.37 119.24 510 116.42 499.44 114.19 488.76 112.56 478.08 111.09 467.34 110.22 456.69 109.96 446.2 109.83 435.71 110.28 425.39 111.33 415.29 112.45 405.19 114.09 395.53 116.22 386.29 118.34 377.01 120.9 368.11 123.86 359.54 126.75 350.88 130 342.46 133.57 334.25 137.01 325.84 140.75 317.52 144.76 309.22 148.6 300.6 152.71 291.88 157.04 282.99 161.2 273.71 165.6 264.2 170.22 254.43 174.68 244.31 179.39 233.99 184.33 223.55 189.14 213.01 194.21 202.59 199.54 192.47 204.78 182.69 210.31 173.58 216.12 165.36 221.88 157.97 227.95 151.77 234.32 146.91 240.66 143.06 247.32 140.53 254.28 139.27 261.25 138.6 268.52 138.75 276.07 139.44 283.64 139.8 291.49 140.03 299.59 139.82 307.71 138.43 316.08 136.19 324.68 133.06 333.28 128.68 342.1 123.69 351.11 118.43 360.12 112.89 369.32 107.95 378.69 104.09" stroke-dasharray="0 0" transform="rotate(0, 400, 400)" opacity="0.07"></path><path d="M380.39 114.8C389.43 112.02 398.47 110.99 407.47 111.8 416.48 113.99 425.49 117.85 434.47 123.08 443.48 129.01 452.5 135.64 461.52 142.57 470.61 149.12 479.73 155.34 488.87 161.01 498.12 165.62 507.42 169.51 516.77 172.7 526.25 174.89 535.79 176.66 545.38 178.23 555.08 179.34 564.82 180.7 574.54 182.51 584.34 184.51 594.08 187.3 603.68 190.97 613.25 195.22 622.59 200.45 631.61 206.63 640.43 213.44 648.78 221.1 656.55 229.49 663.93 238.37 670.57 247.79 676.36 257.61 681.58 267.72 685.82 278.07 688.98 288.54 691.47 299.14 692.83 309.76 693.03 320.33 692.59 330.94 691.04 341.45 688.43 351.83 685.38 362.22 681.44 372.47 676.74 382.53 671.95 392.61 666.67 402.5 661.05 412.16 655.78 421.83 650.57 431.02 645.58 439.7 641.25 448.36 637.28 456.47 633.71 463.99 630.94 471.45 628.57 478.28 626.58 484.47 624.82 493.33 623.07 508.02 622.54 514.24 622.23 520.61 619.93 534.59 617.5 543.36 615.57 550.53 612.98 558.67 609.74 567.89 606.27 578.3 602.13 589.73 597.32 602 592.27 614.88 586.59 627.98 580.32 640.82 573.83 652.98 566.81 663.86 559.31 672.86 551.65 679.8 543.57 684.09 535.13 685.46 526.59 684.4 517.74 680.65 508.63 674.62 499.48 667.55 490.1 659.62 480.56 651.74 471 645.39 461.3 640.79 451.49 638.63 441.67 639.76 431.76 643.8 421.77 650.49 411.78 659.62 401.96 669.66 392.31 679.55 382.65 688.85 373.16 696.03 363.84 700.37 354.5 701.97 345.32 700.08 336.3 694.89 327.25 687.08 318.35 676.83 309.6 664.9 300.81 652.18 292.17 639.2 283.68 626.65 275.14 615.19 266.75 605.09 258.53 596.56 250.26 589.92 242.17 584.89 234.27 581.25 226.34 579.16 218.61 577.89 211.13 577.07 203.65 576.9 196.44 576.53 189.53 575.65 182.66 574.66 176.13 572.76 169.97 569.85 163.9 566.44 158.24 561.94 153.03 556.41 147.95 550.33 143.35 543.35 139.26 535.61 135.34 527.46 131.94 518.74 129.1 509.58 126.44 500.21 124.35 490.57 122.84 480.76 121.5 470.88 120.73 460.93 120.55 451 120.5 441.05 121.02 431.16 122.11 421.36 123.27 411.57 124.94 402.09 127.08 392.91 129.21 383.7 131.77 374.75 134.7 366.03 137.57 357.21 140.79 348.53 144.31 339.96 147.72 331.2 151.41 322.43 155.35 313.62 159.14 304.54 163.18 295.32 167.43 285.92 171.52 276.24 175.83 266.36 180.36 256.31 184.73 246.07 189.32 235.76 194.14 225.5 198.82 215.32 203.74 205.43 208.91 196.01 213.98 187.09 219.31 178.95 224.91 171.79 230.44 165.49 236.26 160.37 242.36 156.53 248.42 153.58 254.79 151.8 261.43 151.1 268.06 150.8 274.98 151.12 282.18 151.78 289.38 151.99 296.85 151.94 304.58 151.38 312.31 149.65 320.3 147.1 328.52 143.73 336.73 139.2 345.18 134.16 353.83 128.92 362.47 123.46 371.33 118.6 380.38 114.81" stroke-dasharray="0 0" transform="rotate(4.04, 400, 400)" opacity="0.74"></path><path d="M382.73 125.52C391.46 122.74 400.21 121.64 408.96 122.27 417.72 124.22 426.49 127.78 435.26 132.7 444.07 138.36 452.91 144.77 461.76 151.59 470.67 158.17 479.62 164.56 488.61 170.51 497.68 175.55 506.8 179.93 515.96 183.64 525.22 186.36 534.53 188.59 543.85 190.5 553.25 191.83 562.65 193.22 572 194.86 581.38 196.49 590.65 198.71 599.75 201.63 608.77 204.95 617.53 209.13 625.92 214.17 634.1 219.76 641.79 226.18 648.88 233.35 655.6 241 661.59 249.26 666.75 258.01 671.38 267.1 675.09 276.53 677.79 286.18 679.88 296.03 680.93 305.98 680.92 315.95 680.34 326.01 678.75 336.03 676.19 345.94 673.25 355.89 669.51 365.7 665.07 375.31 660.55 384.94 655.58 394.37 650.27 403.53 645.28 412.69 640.33 421.35 635.53 429.49 631.34 437.61 627.43 445.19 623.86 452.2 621.01 459.19 618.51 465.61 616.34 471.49 614.2 480.05 611.59 495.15 610.66 502.19 610.31 507.21 609.73 512.33 608.84 517.73 608.04 523.86 606.8 530.56 605.07 537.99 603.26 546.4 600.88 555.7 597.92 565.9 594.79 576.99 591.03 588.78 586.68 601.06 582.12 613.54 576.97 625.86 571.26 637.55 565.36 648.29 558.94 657.54 552.05 664.8 545.02 670.05 537.56 672.79 529.73 672.86 521.8 670.85 513.54 666.56 505 660.39 496.42 653.54 487.58 646.15 478.55 639.01 469.5 633.43 460.28 629.55 450.91 627.94 441.54 629.35 432.04 633.37 422.44 639.78 412.84 648.4 403.36 657.87 394.03 667.25 384.69 676.2 375.48 683.32 366.42 687.95 357.35 690.18 348.41 689.25 339.62 685.25 330.8 678.76 322.11 669.84 313.57 659.1 304.99 647.32 296.55 634.95 288.25 622.62 279.92 610.94 271.73 600.23 263.71 590.75 255.65 582.86 247.77 576.41 240.08 571.3 232.38 567.7 224.88 565.07 217.63 563.11 210.39 562.02 203.42 561.04 196.75 559.89 190.13 558.91 183.85 557.35 177.93 555.06 172.11 552.51 166.69 549.05 161.71 544.7 156.86 539.94 152.47 534.31 148.59 527.9 144.86 521.15 141.65 513.74 138.98 505.79 136.48 497.63 134.53 489.06 133.15 480.19 131.92 471.23 131.25 462.07 131.15 452.77 131.18 443.45 131.76 434.04 132.89 424.6 134.09 415.15 135.78 405.87 137.91 396.78 140.05 387.65 142.59 378.67 145.5 369.79 148.35 360.84 151.53 351.93 155.01 343.03 158.37 333.98 162.01 324.87 165.89 315.66 169.62 306.26 173.59 296.72 177.77 287.03 181.79 277.17 186.03 267.19 190.46 257.15 194.74 247.07 199.24 237.07 203.94 227.27 208.51 217.7 213.3 208.58 218.32 200.07 223.24 192.14 228.4 185.08 233.8 179.04 239.13 173.82 244.73 169.74 250.59 166.84 256.4 164.68 262.49 163.53 268.84 163.25 275.17 163.2 281.78 163.57 288.66 164.11 295.52 164.09 302.65 163.73 310.03 162.81 317.4 160.74 325.03 157.9 332.89 154.29 340.75 149.65 348.84 144.57 357.15 139.37 365.45 134.01 373.98 129.25 382.72 125.52" stroke-dasharray="0 0" transform="rotate(8.08, 400, 400)" opacity="0.73"></path><path d="M385.65 136.23C394.08 133.48 402.55 132.3 411.03 132.76 419.53 134.47 428.06 137.73 436.6 142.32 445.19 147.67 453.81 153.83 462.45 160.48 471.15 167.03 479.9 173.51 488.67 179.69 497.52 185.09 506.41 189.92 515.32 194.14 524.3 197.41 533.31 200.15 542.3 202.5 551.35 204.18 560.35 205.77 569.27 207.44 578.18 208.91 586.94 210.79 595.49 213.19 603.94 215.8 612.09 219.12 619.85 223.19 627.38 227.68 634.41 232.95 640.85 238.93 646.92 245.35 652.29 252.41 656.86 260.01 660.95 267.96 664.16 276.32 666.44 284.99 668.18 293.88 668.95 302.97 668.76 312.16 668.06 321.48 666.45 330.82 663.96 340.1 661.15 349.44 657.6 358.68 653.41 367.75 649.17 376.85 644.49 385.76 639.49 394.42 634.78 403.08 630.07 411.27 625.48 418.98 621.43 426.67 617.6 433.88 614.05 440.6 611.15 447.32 608.54 453.59 606.21 459.43 603.74 468.12 600.33 484.46 599.01 492.64 598.42 498.55 597.64 504.71 596.61 511.27 595.7 518.53 594.41 526.4 592.71 534.95 590.98 544.32 588.75 554.42 586.01 565.18 583.14 576.52 579.71 588.25 575.74 600.11 571.6 611.84 566.92 623.07 561.71 633.39 556.34 642.58 550.48 650.14 544.15 655.71 537.7 659.39 530.83 660.74 523.57 659.71 516.23 656.96 508.55 652.29 500.57 646.14 492.54 639.62 484.25 632.82 475.73 626.42 467.19 621.6 458.45 618.41 449.54 617.31 440.62 618.95 431.55 622.94 422.35 629.06 413.15 637.2 404.04 646.1 395.05 654.97 386.05 663.55 377.15 670.56 368.38 675.4 359.6 678.16 350.93 678.09 342.38 675.19 333.82 669.97 325.37 662.37 317.06 652.88 308.72 642.18 300.5 630.62 292.42 618.75 284.32 607.17 276.36 596.16 268.57 586.06 260.75 577.19 253.1 569.54 245.65 563.11 238.2 558.08 230.95 554.05 223.95 550.82 216.98 548.57 210.27 546.68 203.86 544.9 197.51 543.52 191.49 541.85 185.83 539.72 180.27 537.55 175.1 534.71 170.36 531.13 165.75 527.32 161.59 522.73 157.92 517.4 154.4 511.81 151.38 505.55 148.88 498.7 146.55 491.66 144.74 484.12 143.48 476.18 142.37 468.14 141.8 459.77 141.77 451.14 141.88 442.48 142.5 433.61 143.66 424.56 144.9 415.5 146.6 406.48 148.73 397.52 150.86 388.54 153.38 379.57 156.26 370.62 159.08 361.62 162.22 352.57 165.64 343.47 168.96 334.27 172.54 324.98 176.36 315.57 180.04 306.06 183.94 296.43 188.05 286.72 192.01 276.95 196.17 267.15 200.52 257.42 204.72 247.79 209.13 238.36 213.73 229.27 218.19 220.55 222.87 212.37 227.75 204.91 232.53 198.07 237.54 192.13 242.77 187.2 247.92 183.03 253.32 179.91 258.96 177.83 264.54 176.33 270.39 175.66 276.48 175.68 282.54 175.74 288.87 176.05 295.44 176.4 302 176.09 308.81 175.38 315.87 174.08 322.92 171.68 330.21 168.56 337.75 164.75 345.27 160.02 353.03 154.94 361.01 149.79 368.99 144.54 377.2 139.89 385.64 136.23" stroke-dasharray="0 0" transform="rotate(12.12, 400, 400)" opacity="0.28"></path><path d="M389.05 146.94C397.18 144.22 405.36 142.97 413.58 143.27 421.8 144.74 430.07 147.69 438.38 151.94 446.71 156.96 455.08 162.83 463.49 169.26 471.94 175.71 480.43 182.21 488.95 188.53 497.52 194.22 506.12 199.45 514.73 204.13 523.38 207.94 532.03 211.23 540.64 214.08 549.27 216.21 557.83 218.14 566.27 220.01 574.67 221.54 582.89 223.3 590.87 225.4 598.72 227.54 606.25 230.24 613.38 233.54 620.26 237.13 626.65 241.39 632.45 246.31 637.91 251.59 642.68 257.5 646.71 263.96 650.29 270.74 653.05 277.98 654.95 285.59 656.37 293.43 656.91 301.54 656.55 309.83 655.78 318.26 654.17 326.79 651.76 335.34 649.07 343.95 645.72 352.53 641.78 361.01 637.8 369.51 633.41 377.87 628.72 386.05 624.27 394.23 619.81 402.02 615.43 409.4 611.52 416.77 607.79 423.76 604.28 430.37 601.35 437.01 598.65 443.33 596.19 449.36 594.29 455.51 592.57 461.47 590.98 467.34 589.85 473.47 588.74 479.66 587.61 486.02 586.78 492.82 585.8 499.98 584.62 507.57 583.57 515.78 582.22 524.55 580.51 533.91 578.8 543.86 576.67 554.35 574.08 565.25 571.42 576.42 568.26 587.68 564.6 598.75 560.82 609.42 556.54 619.34 551.77 628.14 546.88 635.72 541.51 641.63 535.7 645.6 529.78 647.85 523.45 648.01 516.74 646.09 509.95 642.79 502.82 637.93 495.38 631.93 487.89 625.83 480.13 619.65 472.12 614 464.08 609.91 455.83 607.36 447.38 606.72 438.93 608.57 430.3 612.52 421.52 618.35 412.74 626 404.01 634.36 395.37 642.71 386.73 650.9 378.16 657.76 369.7 662.74 361.23 665.94 352.85 666.61 344.58 664.72 336.3 660.7 328.12 654.38 320.06 646.17 311.99 636.64 304.03 626.05 296.2 614.88 288.36 603.66 280.66 592.67 273.11 582.25 265.57 572.74 258.18 564.18 250.99 556.65 243.82 550.34 236.85 544.99 230.12 540.49 223.43 536.98 217 533.99 210.87 531.32 204.81 529.2 199.07 527.04 193.68 524.67 185.94 521.13 172.68 511.36 167.26 504.84 163.95 500.12 161.12 494.76 158.8 488.81 156.63 482.71 154.97 476.08 153.83 468.97 152.84 461.78 152.36 454.17 152.41 446.2 152.58 438.2 153.26 429.87 154.44 421.25 155.7 412.63 157.4 403.93 159.52 395.17 161.64 386.41 164.14 377.57 166.97 368.67 169.75 359.74 172.85 350.71 176.21 341.6 179.48 332.43 183 323.16 186.75 313.81 190.38 304.43 194.22 294.98 198.25 285.53 202.15 276.13 206.23 266.8 210.51 257.65 214.63 248.71 218.95 240.09 223.45 231.93 227.82 224.2 232.39 217.1 237.16 210.76 241.81 205.04 246.68 200.2 251.76 196.33 259.36 191.96 275.61 188.27 284.28 188.28 290.1 188.33 296.17 188.5 302.47 188.57 308.75 187.94 315.27 186.85 322.04 185.18 328.78 182.47 335.77 179.09 342.99 175.11 350.2 170.32 357.65 165.25 365.33 160.17 373 155.05 380.9 150.53 389.04 146.95" stroke-dasharray="0 0" transform="rotate(16.16, 400, 400)" opacity="0.82"></path><path d="M392.81 157.66C400.65 154.97 408.54 153.66 416.47 153.81 424.42 155.04 432.41 157.68 440.44 161.58 448.49 166.25 456.59 171.8 464.72 177.96 472.88 184.24 481.08 190.68 489.29 197.07 497.54 202.96 505.81 208.51 514.06 213.6 522.33 217.91 530.58 221.74 538.76 225.12 546.93 227.78 555 230.15 562.92 232.36 570.79 234.13 578.44 235.97 585.83 238 593.08 239.92 599.99 242.23 606.48 245.01 612.74 247.92 618.5 251.4 623.69 255.45 628.56 259.75 632.78 264.63 636.29 270.05 639.41 275.72 641.76 281.88 643.32 288.45 644.46 295.22 644.79 302.32 644.32 309.67 643.48 317.15 641.88 324.8 639.56 332.56 637.02 340.39 633.86 348.26 630.16 356.11 626.44 363.98 622.34 371.81 617.94 379.54 613.76 387.27 609.54 394.71 605.37 401.86 601.61 409.01 597.98 415.9 594.53 422.53 591.59 429.22 588.84 435.72 586.28 442.08 584.23 448.58 582.32 455.04 580.53 461.53 579.16 468.3 577.82 475.23 576.46 482.41 575.4 490 574.22 497.97 572.87 506.36 571.68 515.23 570.23 524.56 568.48 534.34 566.77 544.48 564.69 554.94 562.21 565.56 559.7 576.18 556.74 586.62 553.35 596.61 549.86 606 545.92 614.45 541.53 621.67 534.58 629.82 518.43 635.09 509.31 632.07 503.04 628.41 496.43 623.52 489.5 617.78 482.53 612.17 475.28 606.66 467.77 601.75 460.23 598.36 452.46 596.41 444.49 596.19 436.5 598.21 428.32 602.09 419.96 607.63 411.61 614.82 403.29 622.64 395.02 630.49 386.76 638.27 378.55 644.92 370.41 649.97 362.28 653.52 354.22 654.83 346.25 653.84 338.28 650.93 330.4 645.85 322.62 638.91 314.84 630.61 307.16 621.1 299.62 610.81 292.07 600.21 284.65 589.53 277.39 579.11 270.13 569.27 263.04 560.11 256.14 551.77 249.27 544.41 242.6 537.92 236.16 532.23 229.78 527.48 223.65 523.33 217.81 519.62 209.33 515.1 194.19 506.69 187.64 502.06 181.7 497.12 172.22 484.61 168.75 476.93 166.75 471.55 165.23 465.63 164.21 459.22 163.34 452.74 162.95 445.81 163.07 438.44 163.3 431.06 164.02 423.28 165.22 415.12 166.49 406.97 168.2 398.65 170.29 390.19 172.39 381.74 174.85 373.16 177.64 364.46 180.38 355.75 183.42 346.93 186.72 338.01 189.93 329.09 193.4 320.09 197.07 311.05 200.64 302.05 204.41 293.05 208.37 284.13 212.2 275.35 216.22 266.74 220.41 258.4 224.46 250.35 228.7 242.72 233.11 235.61 237.39 228.97 241.86 222.99 246.52 217.79 253.43 211.25 268.11 203.23 275.91 201.56 283.83 200.85 300.7 200.89 309.68 200.6 315.7 199.6 321.96 198.13 328.45 196.09 334.92 193.08 341.62 189.48 348.55 185.36 355.46 180.53 362.61 175.5 369.99 170.53 377.36 165.54 384.97 161.15 392.8 157.66" stroke-dasharray="0 0" transform="rotate(20.200000000000003, 400, 400)" opacity="0.85"></path><path d="M396.82 168.37C404.36 165.72 411.95 164.37 419.59 164.36 427.23 165.37 434.93 167.71 442.66 171.24 450.41 175.55 458.21 180.74 466.02 186.58 473.86 192.64 481.72 198.95 489.58 205.31 497.47 211.32 505.35 217.1 513.2 222.52 521.05 227.28 528.85 231.6 536.56 235.5 544.24 238.71 551.8 241.6 559.17 244.24 566.48 246.39 573.55 248.49 580.34 250.65 586.98 252.58 593.27 254.75 599.15 257.24 607.38 261.2 620.75 271.64 625.64 278.21 629.32 285.53 632.55 302.58 632.06 312.1 631.17 318.65 629.61 325.45 627.39 332.42 624.99 339.45 622.03 346.62 618.57 353.86 615.11 361.12 611.28 368.42 607.16 375.74 603.24 383.06 599.26 390.21 595.3 397.2 591.7 404.19 588.19 411.05 584.81 417.79 581.88 424.59 579.1 431.33 576.47 438.05 574.29 444.92 572.23 451.86 570.27 458.93 568.69 466.25 567.14 473.8 565.58 481.63 564.3 489.78 562.92 498.29 561.41 507.15 560.07 516.33 558.51 525.85 556.69 535.64 554.95 545.58 552.88 555.61 550.48 565.57 548.06 575.31 545.26 584.66 542.07 593.35 538.83 601.32 535.17 608.24 531.11 613.88 524.7 619.79 509.81 621.64 501.38 617.75 495.59 613.91 489.46 609.13 483.03 603.77 476.55 598.7 469.79 593.86 462.76 589.68 455.71 586.94 448.42 585.54 440.91 585.7 433.38 587.86 425.65 591.66 417.74 596.92 409.82 603.65 401.91 610.95 394.04 618.29 386.17 625.65 378.33 632.07 370.55 637.12 362.78 640.92 355.06 642.77 347.42 642.58 339.79 640.67 332.23 636.76 324.76 631.05 317.3 624.01 309.94 615.66 302.7 606.39 295.47 596.6 288.37 586.48 281.41 576.36 274.48 566.51 267.71 557.09 261.12 548.23 254.57 540.13 248.22 532.73 242.1 526.05 236.04 520.18 230.23 514.93 224.71 510.17 219.26 506.07 214.12 502.25 209.31 498.58 202.44 493.64 190.74 483.32 186.01 477.48 181.92 471.26 176.21 456.5 174.63 447.9 173.86 441.98 173.56 435.59 173.75 428.76 174.03 421.92 174.78 414.65 176 406.98 177.28 399.31 178.97 391.42 181.04 383.37 183.11 375.32 185.53 367.12 188.26 358.78 190.95 350.46 193.93 342.03 197.16 333.53 200.31 325.06 203.71 316.56 207.31 308.07 210.81 299.67 214.51 291.36 218.39 283.2 222.15 275.24 226.09 267.53 230.2 260.18 234.18 253.15 238.34 246.6 242.66 240.62 246.86 235.08 251.23 230.21 255.78 226.08 262.53 221 276.82 215.16 284.38 214.1 292.05 213.62 308.33 213.22 316.97 212.41 322.76 211.03 328.77 209.18 335.01 206.8 341.21 203.53 347.65 199.73 354.3 195.51 360.94 190.67 367.8 185.71 374.89 180.85 381.96 176.02 389.27 171.77 396.81 168.38" stroke-dasharray="0 0" transform="rotate(24.24, 400, 400)" opacity="0.41"></path><path d="M400.93 179.09C408.16 176.48 415.45 175.09 422.77 174.94 430.11 175.73 437.49 177.77 444.89 180.94 452.31 184.86 459.77 189.67 467.23 195.16 474.71 200.93 482.21 207.04 489.68 213.29 497.17 219.33 504.63 225.24 512.03 230.9 519.43 236.02 526.75 240.78 533.95 245.16 541.12 248.91 548.14 252.33 554.95 255.47 561.68 258.1 568.17 260.59 574.36 263.03 583.25 266.29 598.74 273.5 605.11 277.82 610.53 282.59 617.89 294.38 619.71 301.4 620.41 308.98 618.11 325.99 615.25 335.24 612.99 341.54 610.22 348.04 607 354.71 603.78 361.4 600.22 368.22 596.38 375.17 592.72 382.11 588.98 389.01 585.22 395.87 581.79 402.74 578.4 409.59 575.11 416.43 572.21 423.34 569.42 430.3 566.75 437.34 564.47 444.5 562.29 451.82 560.18 459.32 558.42 467.01 556.69 474.95 554.94 483.16 553.47 491.59 551.91 500.31 550.24 509.27 548.75 518.41 547.07 527.73 545.18 537.13 543.37 546.51 541.29 555.78 538.92 564.77 536.57 573.39 533.88 581.45 530.85 588.72 526.08 597.91 514.64 608.64 507.97 609.63 503.35 608.77 498.38 606.59 493.07 603.22 487.71 599.36 482.03 594.81 476.06 589.9 470.04 585.42 463.75 581.26 457.19 577.78 450.61 575.67 443.78 574.76 436.73 575.26 429.67 577.53 422.39 581.23 414.92 586.21 407.45 592.49 399.97 599.28 392.5 606.12 385.04 613.05 377.59 619.2 370.19 624.19 362.8 628.16 355.45 630.45 348.16 630.94 340.88 629.93 333.67 627.09 326.55 622.56 319.44 616.75 312.42 609.62 305.52 601.45 298.63 592.64 291.87 583.3 285.25 573.72 278.66 564.18 272.22 554.8 265.97 545.76 259.77 537.23 253.76 529.22 247.98 521.79 242.26 515.03 236.78 508.82 231.58 503.11 226.46 498 221.64 493.25 217.13 488.75 210.71 482.68 199.82 470.93 195.44 464.8 191.67 458.53 186.47 444.29 185.07 436.18 184.42 430.63 184.2 424.67 184.44 418.29 184.78 411.9 185.56 405.1 186.78 397.91 188.06 390.72 189.74 383.32 191.76 375.74 193.81 368.18 196.18 360.47 198.84 352.65 201.48 344.86 204.38 336.99 207.54 329.09 210.62 321.25 213.94 313.43 217.46 305.69 220.88 298.09 224.5 290.63 228.3 283.4 231.99 276.39 235.85 269.71 239.87 263.43 243.78 257.47 247.85 252.02 252.08 247.14 258.34 240.74 271.52 231.8 278.45 229.25 285.44 227.63 300.21 226.46 308.01 226.26 315.94 225.35 332.73 221.1 341.61 217.29 347.58 213.79 353.75 209.85 360.14 205.55 366.51 200.74 373.09 195.87 379.89 191.14 386.68 186.47 393.69 182.38 400.92 179.09" stroke-dasharray="0 0" transform="rotate(28.28, 400, 400)" opacity="0.21"></path><path d="M405.02 189.8C411.93 187.26 418.9 185.82 425.89 185.55 432.9 186.13 439.94 187.87 446.99 190.69 454.06 194.22 461.15 198.62 468.23 203.72 475.33 209.15 482.42 214.99 489.47 221.06 496.52 227.02 503.53 232.96 510.47 238.76 517.38 244.14 524.2 249.24 530.88 254.04 537.51 258.28 543.97 262.21 550.22 265.86 556.38 269 562.29 271.96 567.89 274.81 575.91 278.54 589.72 286.05 595.32 290.19 600.04 294.52 606.31 304.93 607.76 311.08 608.22 317.67 605.85 332.66 603.13 340.97 601.01 346.63 598.44 352.55 595.45 358.72 592.47 364.89 589.17 371.28 585.6 377.89 582.19 384.5 578.68 391.17 575.14 397.89 571.87 404.63 568.62 411.44 565.44 418.34 562.59 425.3 559.81 432.38 557.12 439.6 554.78 446.92 552.5 454.42 550.28 462.13 548.37 469.96 546.48 478.02 544.58 486.29 542.92 494.68 541.2 503.25 539.39 511.96 537.74 520.7 535.95 529.46 533.97 538.15 532.1 546.66 529.99 554.9 527.63 562.71 525.31 570.05 522.7 576.72 519.79 582.53 515.26 589.56 504.53 596.46 498.32 596.07 494.03 594.6 489.42 592.05 484.49 588.58 479.53 584.84 474.27 580.64 468.71 576.24 463.13 572.37 457.28 568.88 451.17 566.07 445.04 564.52 438.66 564.07 432.06 564.86 425.45 567.21 418.62 570.8 411.6 575.49 404.58 581.35 397.53 587.64 390.48 593.99 383.44 600.48 376.4 606.33 369.4 611.2 362.4 615.27 355.43 617.9 348.53 618.95 341.63 618.73 334.79 616.86 328.04 613.43 321.3 608.8 314.65 602.88 308.11 595.87 301.59 588.15 295.19 579.75 288.93 570.93 282.7 561.95 276.63 552.91 270.74 544 264.9 535.37 259.25 527.08 253.82 519.2 248.45 511.81 243.32 504.89 238.46 498.41 233.68 492.44 229.18 486.84 224.99 481.55 219.01 474.3 208.95 460.77 204.92 454.08 201.47 447.45 196.77 433.14 195.55 425.28 195 419.95 194.86 414.27 195.15 408.25 195.54 402.22 196.34 395.84 197.56 389.12 198.84 382.39 200.48 375.5 202.47 368.46 204.47 361.45 206.78 354.32 209.37 347.13 211.94 339.97 214.77 332.79 217.84 325.63 220.85 318.56 224.08 311.56 227.51 304.7 230.85 297.99 234.39 291.49 238.09 285.27 241.7 279.28 245.47 273.64 249.4 268.44 255.22 261.33 267.47 250.25 273.89 246.4 280.34 243.52 293.89 240.46 301.03 239.89 308.23 239.24 323.44 237.21 331.47 235.23 336.84 233.1 342.4 230.55 348.16 227.56 353.89 223.87 359.82 219.82 365.94 215.49 372.05 210.74 378.36 205.98 384.87 201.4 391.38 196.91 398.09 192.98 405.01 189.8" stroke-dasharray="0 0" transform="rotate(32.32, 400, 400)" opacity="0.70"></path><path d="M408.93 200.51C415.52 198.03 422.15 196.58 428.8 196.18 435.46 196.57 442.14 198.02 448.82 200.48 455.52 203.62 462.21 207.6 468.89 212.29 475.57 217.34 482.23 222.84 488.83 228.64 495.43 234.44 501.97 240.31 508.41 246.14 514.82 251.67 521.12 257.01 527.26 262.11 533.35 266.77 539.26 271.15 544.95 275.28 550.54 278.94 555.88 282.4 560.91 285.7 568.09 290.06 580.31 298.36 585.2 302.61 591.95 311.73 595.99 328.1 595.19 334.68 593.6 341.61 587.88 357.04 583.93 365.5 581.18 371.24 578.13 377.26 574.82 383.56 571.65 389.85 568.37 396.28 565.04 402.84 561.95 409.41 558.85 416.12 555.78 422.97 553 429.86 550.26 436.92 547.57 444.14 545.19 451.42 542.85 458.89 540.55 466.53 538.52 474.24 536.5 482.12 534.47 490.12 532.66 498.16 530.8 506.27 528.85 514.39 527.07 522.43 525.16 530.35 523.11 538.06 521.15 545.49 519 552.53 516.64 559.04 513.04 567.66 504.6 579.72 499.68 582.66 494.46 583.36 482.5 578.69 475.78 573.92 471.17 570.42 466.28 566.64 461.12 562.81 455.94 559.55 450.5 556.72 444.82 554.53 439.11 553.51 433.17 553.47 427.01 554.5 420.85 556.9 414.47 560.37 407.89 564.78 401.31 570.21 394.7 576.02 388.09 581.9 381.47 587.94 374.86 593.46 368.26 598.17 361.68 602.26 355.12 605.12 348.61 606.64 342.12 607.08 335.68 606.06 329.31 603.64 322.97 600.13 316.7 595.37 310.55 589.54 304.42 582.96 298.4 575.61 292.52 567.72 286.68 559.51 280.99 551.08 275.47 542.57 270.01 534.16 264.73 525.9 259.66 517.88 254.66 510.19 249.89 502.84 245.37 495.84 240.94 489.24 236.77 482.97 232.89 477.01 229.12 471.4 225.65 466.01 222.51 460.78 218.13 453.37 211.32 438.86 208.94 431.5 207.11 424.1 205.58 408.3 205.89 399.81 206.31 394.06 207.12 388.05 208.34 381.77 209.6 375.49 211.22 369.11 213.15 362.65 215.1 356.2 217.34 349.71 219.86 343.21 222.35 336.76 225.1 330.33 228.07 324 231 317.74 234.13 311.63 237.46 305.71 240.71 299.93 244.15 294.41 247.75 289.2 253.11 281.88 264.46 269.67 270.43 264.94 276.41 261.06 288.96 255.98 295.54 254.59 302.16 253.49 316.06 251.83 323.37 250.74 330.76 248.74 346.35 242.26 354.55 237.6 360.06 233.77 365.74 229.64 371.6 225.32 377.45 220.66 383.49 216.04 389.71 211.64 395.92 207.34 402.33 203.57 408.92 200.52" stroke-dasharray="0 0" transform="rotate(36.36, 400, 400)" opacity="0.36"></path><path d="M412.55 211.23C418.8 208.82 425.08 207.35 431.37 206.85 437.67 207.05 443.97 208.23 450.26 210.35 462.86 216.42 475.4 225.35 487.68 236.1 499.92 247.18 511.8 258.51 523.07 269.41 534.11 278.92 544.33 287.57 553.42 295.45 562.02 301.91 569.24 308.14 574.8 314.51 579.62 320.19 582.62 326.6 583.63 333.95 583.93 341.14 582.36 349.51 578.97 359.09 577.16 363.87 574.97 368.95 572.43 374.34 569.91 379.72 567.1 385.41 564.04 391.4 561.11 397.4 558.06 403.57 554.94 409.9 552.02 416.24 549.08 422.75 546.13 429.42 541 442.83 535.93 456.94 530.98 471.54 526.99 486.19 522.92 501.12 518.65 515.79 515 529.81 510.82 542.69 506 553.5 501.42 562.31 495.94 567.98 489.5 569.91 483.07 569.43 475.57 565.65 467.05 559.34 458.46 553.25 448.84 547.34 438.28 543.18 432.98 542.63 427.46 542.94 421.73 544.18 415.99 546.61 410.05 549.94 403.92 554.07 397.78 559.09 391.61 564.43 385.43 569.84 379.25 575.44 373.07 580.61 366.9 585.12 354.59 592.53 342.38 595.34 330.44 593.2 318.6 587.27 307.08 577.07 296.08 563.85 285.24 549.01 275 533.17 265.55 517.4 256.37 502.27 248.07 488.06 240.87 474.96 234.04 462.97 228.37 451.75 224.06 441.01 220.16 430.87 217.64 420.64 216.62 410.08 216.26 402.15 217.51 385.56 219.12 376.85 220.36 370.98 221.94 365.09 223.81 359.21 225.7 353.33 227.87 347.49 230.3 341.7 235.1 330.24 240.83 319.25 247.3 309.11 253.55 299.46 260.49 291.03 267.99 284.18 275.18 278.01 282.96 273.52 291.24 270.71 299.22 268.09 307.78 266.52 316.87 265.53 325.73 263.31 335.21 260.53 345.27 256.72 355.19 250.61 365.78 243.24 377 235.05 382.59 230.52 388.35 226.07 394.27 221.84 400.19 217.75 406.28 214.16 412.54 211.23" stroke-dasharray="0 0" transform="rotate(40.400000000000006, 400, 400)" opacity="0.60"></path><path d="M415.74 221.94C427.56 217.85 439.42 217.32 451.18 220.28 462.95 225.55 474.6 233.57 485.93 243.48 497.2 253.98 508.05 265.03 518.26 275.97 528.23 285.93 537.38 295.26 545.43 303.91 553.04 311.3 559.35 318.35 564.11 325.33 568.26 331.55 570.76 338.21 571.48 345.56 571.62 352.62 570.09 360.66 566.95 369.77 563.59 378.8 558.96 388.99 553.26 400.39 547.98 411.79 542.31 423.91 536.5 436.59 531.52 449.31 526.52 462.57 521.57 476.1 517.44 489.48 513.2 502.8 508.77 515.48 504.91 527.34 500.61 537.76 495.75 545.99 491.16 552.41 485.79 555.94 479.62 556.23 473.48 554.78 466.42 550.75 458.45 544.91 450.43 539.74 441.49 535.02 431.69 532.01 421.86 532.74 411.2 536.57 399.81 543.35 388.43 553.22 376.9 563.33 365.42 572.05 353.98 579.39 342.62 582.89 331.53 582.14 320.54 578.13 309.85 570.14 299.67 559.12 289.66 546.28 280.21 531.99 271.53 517.24 263.09 502.58 255.51 488.38 248.95 474.97 242.72 462.34 237.6 450.42 233.73 439.1 230.24 428.31 228.03 417.7 227.21 407.11 226.73 396.67 227.6 385.96 229.89 375 232.37 364.04 236.04 353.33 240.69 343.09 245.32 332.96 250.82 323.52 257.05 315.06 263.08 306.96 269.78 300.09 277.02 294.67 284.01 289.65 291.54 286.03 299.55 283.72 307.31 281.25 315.59 279.45 324.36 277.88 332.93 274.98 342.05 271.42 351.7 266.89 361.23 260.34 371.35 252.79 382.03 244.69 392.66 235.84 403.91 227.9 415.73 221.94" stroke-dasharray="0 0" transform="rotate(44.44, 400, 400)" opacity="0.52"></path><path d="M418.41 232.65C429.5 228.68 440.58 227.91 451.5 230.29 462.42 234.77 473.15 241.86 483.52 250.86 493.81 260.61 503.65 271.17 512.81 281.9 521.77 292.02 529.89 301.76 536.97 310.98 543.65 319.16 549.12 326.98 553.19 334.61 556.74 341.5 558.81 348.6 559.29 356.14 559.32 363.35 557.86 371.3 554.95 380.11 551.9 388.82 547.7 398.54 542.48 409.32 537.63 420.11 532.35 431.49 526.88 443.27 522.09 455.05 517.21 467.14 512.3 479.22 508.1 491.04 503.75 502.46 499.23 512.97 495.21 522.6 490.8 530.64 485.94 536.53 481.33 540.9 476.07 542.72 470.12 541.86 464.24 539.84 457.56 535.9 450.08 530.74 442.59 526.55 434.28 522.98 425.2 521.02 416.09 522.35 406.24 526.28 395.71 532.64 385.19 541.66 374.54 550.87 363.93 558.97 353.37 566.13 342.89 570.11 332.66 570.48 322.53 568.16 312.7 562.22 303.36 553.36 294.17 542.65 285.54 530.2 277.62 516.89 269.94 503.26 263.06 489.64 257.13 476.47 251.52 463.73 246.92 451.55 243.49 439.99 240.38 428.82 238.47 418.01 237.84 407.48 237.51 397.08 238.43 386.73 240.67 376.48 243.08 366.22 246.6 356.51 251.04 347.5 255.47 338.56 260.74 330.46 266.68 323.39 272.48 316.55 278.92 310.87 285.87 306.46 292.61 302.2 299.87 299.05 307.58 296.85 315.08 294.23 323.07 291.97 331.49 289.71 339.75 286.09 348.51 281.81 357.72 276.65 366.84 269.79 376.48 262.17 386.6 254.24 396.69 245.79 407.31 238.29 418.41 232.65" stroke-dasharray="0 0" transform="rotate(48.48, 400, 400)" opacity="0.87"></path><path d="M420.46 243.37C430.81 239.53 441.08 238.55 451.14 240.4 461.19 244.11 471 250.26 480.4 258.28 489.73 267.16 498.57 277.02 506.74 287.3 514.7 297.29 521.87 307.15 528.04 316.67 533.88 325.43 538.6 333.86 542.04 342.04 545.07 349.58 546.77 357.18 547.07 364.99 547.02 372.48 545.65 380.47 543 389.08 540.24 397.59 536.44 406.89 531.71 417.02 527.27 427.14 522.39 437.65 517.26 448.34 512.7 458.98 507.98 469.67 503.17 480.08 498.95 490.17 494.57 499.61 490 507.94 483.65 518.41 469.38 528.29 461.06 527 455.41 524.8 449.08 521.22 442.07 516.9 435.06 513.71 427.33 511.23 418.94 510.21 410.52 512.03 401.44 515.99 391.76 521.92 382.08 530.12 372.3 538.47 362.57 545.91 352.88 552.76 343.28 557.02 333.93 558.28 324.67 557.37 315.71 553.27 307.22 546.45 298.86 537.89 291.03 527.45 283.88 515.86 276.95 503.68 270.76 491.14 265.46 478.71 260.43 466.41 256.34 454.48 253.33 443.06 250.61 431.9 248.97 421.14 248.52 410.82 248.32 400.61 249.28 390.67 251.45 381.08 253.78 371.49 257.13 362.66 261.35 354.67 265.56 346.72 270.57 339.69 276.22 333.68 281.75 327.76 287.89 322.89 294.53 319.07 300.99 315.19 307.95 312.14 315.33 309.74 322.53 306.75 330.19 303.9 338.24 300.88 346.15 296.58 354.51 291.65 363.27 286 371.95 278.95 381.08 271.38 390.63 263.7 400.14 255.71 410.1 248.67 420.46 243.37" stroke-dasharray="0 0" transform="rotate(52.52, 400, 400)" opacity="0.78"></path><path d="M421.82 254.08C431.41 250.4 440.85 249.25 450.05 250.6 459.22 253.58 468.11 258.8 476.57 265.8 484.95 273.72 492.83 282.72 500.04 292.32 507.08 301.9 513.35 311.58 518.69 321.1 523.76 330.11 527.81 338.9 530.71 347.45 533.29 355.49 534.69 363.49 534.85 371.54 534.74 379.31 533.48 387.37 531.08 395.8 528.62 404.15 525.21 413.03 520.93 422.45 516.9 431.87 512.41 441.4 507.65 450.87 503.34 460.28 498.82 469.46 494.16 478.14 490 486.49 485.64 494.01 481.09 500.35 474.7 508.06 460.57 513.9 452.52 511.93 447.09 509.86 441.08 506.85 434.51 503.45 427.95 501.25 420.78 499.78 413.03 499.57 405.27 501.77 396.93 505.71 388.08 511.21 379.23 518.61 370.3 526.11 361.44 532.88 352.62 539.33 343.9 543.69 335.43 545.6 327.04 545.81 318.94 543.3 311.29 538.34 303.76 531.81 296.73 523.42 290.34 513.72 284.14 503.28 278.62 492.2 273.93 480.93 269.48 469.57 265.88 458.33 263.27 447.47 260.9 436.71 259.53 426.33 259.24 416.42 259.16 406.59 260.14 397.15 262.23 388.2 264.46 379.25 267.63 371.17 271.61 364 275.59 356.82 280.31 350.57 285.64 345.26 290.88 339.93 296.7 335.5 302.98 331.9 309.14 328.09 315.76 324.86 322.77 322.03 329.64 318.54 336.93 315.03 344.57 311.28 352.1 306.38 360.03 300.94 368.3 294.94 376.5 287.84 385.1 280.42 394.04 273.09 402.95 265.59 412.23 259.04 421.82 254.08" stroke-dasharray="0 0" transform="rotate(56.56, 400, 400)" opacity="0.11"></path><path d="M422.45 264.8C431.25 261.29 439.86 260 448.18 260.9 456.49 263.2 464.47 267.52 472.01 273.5 479.47 280.38 486.43 288.4 492.75 297.12 498.92 306.04 504.36 315.23 508.96 324.44 513.33 333.39 516.78 342.22 519.22 350.87 521.4 359.16 522.55 367.37 522.62 375.52 522.49 383.44 521.35 391.49 519.2 399.69 517.02 407.81 513.99 416.22 510.15 424.89 506.52 433.55 502.43 442.07 498.03 450.29 494 458.43 489.72 466.13 485.27 473.15 481.21 479.89 476.94 485.71 472.49 490.35 466.14 495.86 452.27 498.99 444.52 496.89 439.32 495.19 433.64 492.9 427.48 490.46 421.36 489.19 414.71 488.62 407.59 489.09 400.47 491.59 392.85 495.44 384.8 500.5 376.75 507.13 368.67 513.81 360.67 519.89 352.7 525.85 344.85 530.15 337.25 532.48 329.72 533.55 322.48 532.34 315.65 528.99 308.94 524.33 302.69 517.89 297.04 510.11 291.54 501.55 286.69 492.17 282.58 482.37 278.67 472.31 275.55 462.17 273.31 452.2 271.28 442.24 270.15 432.54 270 423.27 270.02 414.03 271.01 405.2 273.01 396.88 275.13 388.57 278.11 381.13 281.82 374.58 285.56 367.99 289.97 362.25 294.95 357.33 299.88 352.32 305.34 348.02 311.25 344.35 317.05 340.37 323.29 336.78 329.89 333.41 336.39 329.37 343.27 325.22 350.46 320.82 357.57 315.46 365.02 309.66 372.77 303.48 380.47 296.47 388.5 289.32 396.79 282.4 405.07 275.44 413.65 269.39 422.45 264.8" stroke-dasharray="0 0" transform="rotate(60.599999999999994, 400, 400)" opacity="0.13"></path><path d="M422.33 275.51C430.33 272.21 438.1 270.82 445.56 271.31 453 273 460.1 276.46 466.75 281.43 473.34 287.24 479.43 294.18 484.91 301.9 490.27 309.93 494.97 318.38 498.89 326.99 502.64 335.53 505.57 344.08 507.61 352.51 509.46 360.74 510.4 368.88 510.41 376.91 510.28 384.79 509.26 392.66 507.37 400.5 505.45 408.3 502.78 416.16 499.36 424.03 496.12 431.9 492.43 439.39 488.41 446.4 484.69 453.34 480.68 459.68 476.48 465.25 470.53 472.82 457.97 482.27 451.25 483.82 444.51 483.91 429.48 480.22 421.07 477.97 415.37 477.56 409.24 477.75 402.73 478.78 396.21 481.46 389.3 485.18 382.03 489.78 374.76 495.68 367.5 501.56 360.34 506.95 353.21 512.36 346.22 516.47 339.47 519.02 332.77 520.68 326.36 520.47 320.35 518.46 314.43 515.41 308.94 510.74 304 504.79 299.19 498.11 294.96 490.51 291.41 482.33 288.02 473.83 285.35 465.05 283.46 456.26 281.75 447.39 280.84 438.65 280.8 430.2 280.92 421.76 281.9 413.65 283.79 405.98 285.78 398.32 288.55 391.45 292 385.34 295.46 379.2 299.55 373.77 304.17 369 308.75 364.1 313.82 359.73 319.31 355.81 324.73 351.55 330.55 347.51 336.71 343.58 342.78 339.04 349.21 334.37 355.9 329.47 362.54 323.81 369.48 317.84 376.67 311.64 383.82 304.86 391.24 298.09 398.87 291.64 406.48 285.26 414.33 279.74 422.33 275.51" stroke-dasharray="0 0" transform="rotate(64.64, 400, 400)" opacity="0.72"></path><path d="M421.46 286.22C428.65 283.14 435.58 281.69 442.19 281.85 448.78 282.97 455.02 285.64 460.82 289.64 466.58 294.4 471.85 300.22 476.57 306.83 481.19 313.81 485.2 321.31 488.53 329.07 491.72 336.9 494.2 344.85 495.9 352.75 497.46 360.59 498.25 368.37 498.23 376.01 498.11 383.58 497.23 391.06 495.57 398.39 493.92 405.71 491.59 412.93 488.59 419.97 485.72 427 482.42 433.52 478.79 439.43 473.54 447.88 462.16 460.81 456.11 464.93 450.16 467.83 437.29 469.02 430.28 467.9 423.11 467 407.23 466.75 398.51 468.62 392.6 471.39 386.37 474.92 379.86 479.07 373.35 484.25 366.89 489.37 360.56 494.07 354.24 498.89 348.07 502.69 342.15 505.28 333.47 507.53 317.9 503.51 311.26 497.62 307.1 492.69 303.47 486.82 300.44 480.3 297.55 473.44 295.29 466.16 293.73 458.7 292.3 451.13 291.59 443.52 291.66 436.05 291.85 428.56 292.8 421.27 294.57 414.29 296.42 407.31 298.97 400.95 302.13 395.21 305.3 389.42 309.05 384.18 313.28 379.43 317.48 374.53 322.15 370 327.19 365.77 332.18 361.22 337.55 356.77 343.21 352.36 348.83 347.46 354.75 342.42 360.91 337.22 367.03 331.45 373.41 325.49 379.99 319.45 386.55 313.03 393.33 306.74 400.26 300.83 407.18 295.05 414.28 290.07 421.46 286.22" stroke-dasharray="0 0" transform="rotate(68.68, 400, 400)" opacity="0.12"></path><path d="M419.87 296.94C432.6 292 444.25 292.67 454.3 298.19 464.19 306.28 472.25 317.81 477.94 331.06 483.26 344.92 486.08 359.38 486.09 373.38 485.86 387.33 483.09 400.85 477.81 413.25 472.94 425.64 466.5 435.6 459.16 442.72 452.55 449.55 444.95 453.31 436.67 454.13 428.84 455.37 419.97 455.11 410.23 454.62 400.62 457.33 389.89 461.92 378.37 468.36 366.84 477.98 355.64 486.21 345.36 491.35 335.2 495.13 326.15 494.04 318.83 488.61 311.82 481.29 306.74 470.83 304.11 458.8 301.88 446.27 302.17 433.22 305.35 420.69 308.8 408.16 314.67 397.27 322.29 387.89 329.89 377.98 339.13 368.69 349.41 359.65 359.59 349.12 370.87 338.05 382.75 326.95 394.59 314.98 407.14 304.31 419.87 296.94" stroke-dasharray="0 0" transform="rotate(72.72, 400, 400)" opacity="0.77"></path><path d="M417.62 307.65C428.7 303.08 438.71 303.09 447.24 307.13 455.66 313.23 462.44 322.42 467.16 333.36 471.64 345.04 474 357.54 473.99 369.79 473.85 382.14 471.54 394.06 467.03 404.77 462.83 415.47 457.16 423.84 450.61 429.71 444.58 435.49 437.6 438.86 430 440.08 422.76 441.97 414.63 442.93 405.85 443.81 397.18 447.21 387.66 451.88 377.6 457.64 367.54 465.81 357.89 472.76 349.13 477.31 340.46 481.17 332.83 481.29 326.73 477.87 320.87 473.13 316.68 465.51 314.61 456.08 312.84 446.21 313.23 435.36 316.13 424.34 319.23 413.32 324.46 403.16 331.21 393.89 337.97 384.22 346.19 374.76 355.34 365.44 364.43 355.11 374.47 344.49 384.99 334.19 395.49 323.49 406.54 314.13 417.62 307.65" stroke-dasharray="0 0" transform="rotate(76.76, 400, 400)" opacity="0.56"></path><path d="M414.77 318.36C424.21 314.23 432.64 313.75 439.76 316.49 446.79 320.8 452.4 327.75 456.27 336.34 460 345.66 461.96 355.89 461.96 366.11 461.9 376.5 460.02 386.6 456.25 395.65 452.71 404.7 447.83 411.78 442.12 416.84 436.75 421.95 430.52 425.28 423.72 427.12 417.18 429.68 409.91 431.66 402.16 433.57 394.5 437.35 386.21 441.88 377.58 446.93 368.95 453.72 360.8 459.41 353.5 463.25 343.1 467.24 328.49 460.19 325.23 450.41 323.86 442.95 324.33 434.21 326.9 424.76 329.65 415.3 334.19 406.05 340.04 397.19 345.92 388.06 353.07 378.89 361 369.82 368.92 360.16 377.65 350.41 386.74 341.21 395.84 331.94 405.34 323.93 414.77 318.36" stroke-dasharray="0 0" transform="rotate(80.80000000000001, 400, 400)" opacity="0.70"></path><path d="M411.43 329.08C419.23 325.45 426.14 324.63 431.93 326.31 437.65 329.09 442.19 334.01 445.32 340.36 448.35 347.31 449.97 355.19 450 363.27 450.01 371.51 448.53 379.67 445.47 387.11 442.57 394.56 438.49 400.55 433.66 405.07 429.05 409.69 423.66 413.13 417.78 415.57 412.07 418.62 405.77 421.32 399.13 423.88 392.54 427.73 385.51 431.93 378.31 436.21 371.11 441.69 364.41 446.18 358.48 449.24 344.25 450.9 335.21 433.13 337.68 421.88 340.03 414.04 343.87 405.93 348.79 397.87 353.75 389.67 359.77 381.28 366.44 372.99 373.12 364.43 380.47 355.93 388.08 348.09 395.71 340.34 403.63 333.72 411.43 329.08" stroke-dasharray="0 0" transform="rotate(84.84, 400, 400)" opacity="0.28"></path><path d="M407.71 339.79C420.08 334.48 429.43 337.4 434.36 345.69 439.13 355.65 439.52 368.49 434.69 380.29 430.24 392.08 421.96 400.43 412.14 405.65 402.73 412.62 391.34 419.44 379.77 425.5 363.39 436.88 345.79 432.44 348.46 416.09 352.37 403.65 360.97 389.16 371.68 375.24 382.46 361.03 395.33 347.73 407.71 339.79" stroke-dasharray="0 0" transform="rotate(88.88, 400, 400)" opacity="0.37"></path><path d="M403.72 350.5C416.36 346.77 427.23 362.97 423.91 376.08 420.61 384.87 414.3 392.09 406.75 397.46 399.42 403.86 390.63 409.97 381.91 414.79 369.66 422.85 357.03 420.05 359.24 408.17 362.24 398.94 368.72 387.7 376.77 376.92 384.89 366.22 394.53 356.38 403.72 350.5" stroke-dasharray="0 0" transform="rotate(92.92, 400, 400)" opacity="0.63"></path><path d="M399.62 361.22C411.76 355.72 417.74 363.35 413.13 375.06 408.9 386.75 396.36 398.2 384.66 404.07 372.94 412.86 366.21 411.29 370.02 399.15 374.16 387.01 387.47 369.44 399.62 361.22" stroke-dasharray="0 0" transform="rotate(96.96, 400, 400)" opacity="0.95"></path></g></svg>